<svg width="144" height="144" xmlns="http://www.w3.org/2000/svg">
  <!-- Background -->
  <rect width="144" height="144" fill="#3b82f6" rx="20"/>
  
  <!-- Building silhouettes -->
  <rect x="30" y="60" width="25" height="70" fill="#ffffff"/>
  <rect x="65" y="45" width="25" height="85" fill="#ffffff"/>
  <rect x="100" y="55" width="25" height="75" fill="#ffffff"/>
  
  <!-- Windows -->
  <rect x="35" y="70" width="4" height="6" fill="#3b82f6"/>
  <rect x="45" y="70" width="4" height="6" fill="#3b82f6"/>
  <rect x="35" y="85" width="4" height="6" fill="#3b82f6"/>
  <rect x="45" y="85" width="4" height="6" fill="#3b82f6"/>
  
  <rect x="70" y="55" width="4" height="6" fill="#3b82f6"/>
  <rect x="80" y="55" width="4" height="6" fill="#3b82f6"/>
  <rect x="70" y="70" width="4" height="6" fill="#3b82f6"/>
  <rect x="80" y="70" width="4" height="6" fill="#3b82f6"/>
  <rect x="70" y="85" width="4" height="6" fill="#3b82f6"/>
  <rect x="80" y="85" width="4" height="6" fill="#3b82f6"/>
  
  <rect x="105" y="65" width="4" height="6" fill="#3b82f6"/>
  <rect x="115" y="65" width="4" height="6" fill="#3b82f6"/>
  <rect x="105" y="80" width="4" height="6" fill="#3b82f6"/>
  <rect x="115" y="80" width="4" height="6" fill="#3b82f6"/>
  
  <!-- App name -->
  <text x="72" y="25" font-family="Arial, sans-serif" font-size="18" font-weight="bold" text-anchor="middle" fill="#ffffff">CS</text>
</svg>